<?xml version="1.0" encoding="UTF-8"?>
<svg version="1.1" xmlns="http://www.w3.org/2000/svg" width="512" height="512">
<path d="M0 0 C1.96775377 -0.00668677 1.96775377 -0.00668677 3.97526014 -0.01350862 C5.42435671 -0.01341933 6.87345327 -0.0132295 8.32254982 -0.01294994 C9.86725094 -0.01625119 11.41195121 -0.01997731 12.95665038 -0.02409142 C17.19919753 -0.03409005 21.44173053 -0.03782478 25.68428779 -0.04048073 C30.26122432 -0.04439019 34.83814971 -0.05396814 39.41507912 -0.0626936 C50.46799696 -0.08244088 61.52091569 -0.09252245 72.57384676 -0.10142139 C77.78288389 -0.10580752 82.99192001 -0.11117352 88.20095634 -0.11641026 C105.52430383 -0.13342152 122.84765069 -0.14791445 140.17100525 -0.155159 C144.66484897 -0.1570688 149.15869269 -0.15898914 153.65253639 -0.16094494 C155.32785816 -0.16167055 155.32785816 -0.16167055 157.03702481 -0.16241082 C175.11920706 -0.17070649 193.20132306 -0.19603606 211.2834764 -0.22852562 C229.8611488 -0.26163247 248.43878758 -0.27961107 267.01648962 -0.28280324 C277.44180767 -0.28496507 287.86702912 -0.29366583 298.29231834 -0.31926441 C307.17330214 -0.34102105 316.05416589 -0.3489975 324.93517332 -0.33929763 C329.46173668 -0.33476717 333.9880526 -0.33656568 338.51458168 -0.35605907 C342.66890249 -0.37379402 346.82279723 -0.37261029 350.97712322 -0.35716178 C352.46982148 -0.35480125 353.96255007 -0.35902729 355.45520227 -0.37099043 C378.51895071 -0.54419829 399.14225594 7.18131443 415.87177467 23.13422108 C432.12124782 40.49004133 438.0957951 61.13045574 437.94220924 84.33856678 C437.94683304 85.89205379 437.95319576 87.4455364 437.96111822 88.99901009 C437.97763206 93.21489484 437.96964823 97.43041187 437.95717335 101.64629698 C437.94805064 106.21353369 437.96212805 110.7807111 437.97309303 115.34793568 C437.99080642 124.27422113 437.98707045 133.20037144 437.97544247 142.12666202 C437.96638001 149.38632385 437.96519627 156.64594802 437.96953773 163.9056139 C437.97015067 164.94193811 437.9707636 165.97826232 437.97139511 167.04599029 C437.97267411 169.15177879 437.97397096 171.25756728 437.97528547 173.36335576 C437.98667024 193.073009 437.97361065 212.78258762 437.952084 232.49222863 C437.93421495 249.37520877 437.93731965 266.25807886 437.95575905 283.14105701 C437.977203 302.78396348 437.9855718 322.42680468 437.97330999 342.06972122 C437.9720359 344.16742356 437.97077842 346.2651259 437.96953773 348.36282825 C437.96892063 349.39472682 437.96830353 350.42662538 437.96766773 351.4897936 C437.96422539 358.7341293 437.970019 365.97842333 437.97945595 373.22275257 C437.99071656 382.06064224 437.98755091 390.89838994 437.96633297 399.73626351 C437.95587697 404.23870953 437.95160677 408.74091953 437.96492958 413.24336338 C437.97697349 417.37634978 437.97009673 421.50888456 437.94901937 425.6418308 C437.9446035 427.1254601 437.94670438 428.60912869 437.95652252 430.09273207 C438.03843932 443.51578878 436.24433659 457.53466545 429.74677467 469.50922108 C429.40501198 470.1622118 429.06324928 470.81520252 428.71113014 471.48798084 C418.85029288 489.66149944 402.380727 502.42964385 383.01630592 509.12640858 C373.28702826 511.8637626 364.16690167 512.42489709 354.07171059 512.40164661 C352.52426863 512.40538818 350.97682855 512.40999172 349.42939144 512.41537726 C345.19779173 512.42756034 340.96627135 512.42735235 336.73465812 512.42498851 C332.16253826 512.42457914 327.59044343 512.43563098 323.01833534 512.44510365 C314.0677346 512.46168954 305.11716021 512.46721213 296.16654538 512.4683284 C288.88670064 512.46928015 281.60686456 512.47339677 274.32702255 512.47972965 C253.66530523 512.49733654 233.00360865 512.50656955 212.34188377 512.5050687 C211.22889376 512.50498879 210.11590376 512.50490888 208.96918678 512.50482655 C207.85482992 512.50474478 206.74047306 512.50466302 205.59234781 512.50457878 C187.54342388 512.50376634 169.49458349 512.5228949 151.44568371 512.55110328 C132.89160549 512.57987119 114.33756795 512.59364138 95.78346688 512.59191573 C85.37550869 512.59125311 74.96763805 512.59668888 64.55970001 512.61827183 C55.69603605 512.63653523 46.83249931 512.64078884 37.96882462 512.62725298 C33.45224069 512.62074891 28.93590047 512.62051272 24.41934013 512.63795948 C20.27313727 512.65380986 16.12736894 512.65070623 11.98117591 512.63339122 C10.4926203 512.63034737 9.00403128 512.63385325 7.51551514 512.64511137 C-5.924957 512.73991682 -19.9494226 510.95337021 -31.94072533 504.44672108 C-32.59371605 504.10495838 -33.24670677 503.76319569 -33.91948509 503.41107655 C-52.09300369 493.55023929 -64.8611481 477.08067341 -71.55791283 457.71625233 C-74.29589008 447.98475953 -74.85639552 438.86242269 -74.83315086 428.76492786 C-74.83689242 427.21677321 -74.84149595 425.66862045 -74.84688151 424.12047064 C-74.85906458 419.88694032 -74.8588566 415.65348931 -74.85649276 411.41994548 C-74.8560834 406.84579974 -74.86713515 402.27167903 -74.87660789 397.69754505 C-74.89319346 388.74326931 -74.89871635 379.7890199 -74.89983265 370.83473007 C-74.90078435 363.55249306 -74.90490075 356.27026471 -74.9112339 348.98803043 C-74.9288402 328.32124745 -74.93807381 307.6544852 -74.93657295 286.98769467 C-74.93649304 285.87444194 -74.93641313 284.76118921 -74.9363308 283.61420155 C-74.93624903 282.49958237 -74.93616727 281.3849632 -74.93608303 280.23656769 C-74.93527047 262.18050169 -74.95440234 244.12451918 -74.98260753 226.06847732 C-75.01136968 207.50875386 -75.02514597 188.94907108 -75.02341998 170.38932478 C-75.02275719 159.9774861 -75.02820045 149.56573492 -75.04977608 139.15391636 C-75.06803181 130.28766197 -75.07229928 121.42153474 -75.05875723 112.55526964 C-75.05224951 108.03678439 -75.05203044 103.51854279 -75.06946373 99.00008106 C-75.0852975 94.85331361 -75.082227 90.70698093 -75.06489547 86.56022342 C-75.06184804 85.07033973 -75.06537144 83.58042274 -75.07661562 82.09057836 C-75.23890676 59.03656568 -67.51173479 38.41900687 -51.56572533 21.69672108 C-37.76506691 8.75170348 -19.06527904 0.03014336 0 0 Z " fill="#65ADFA" transform="translate(74.56572532653809,-0.13422107696533203)"/>
<path d="M0 0 C17.49 0 34.98 0 53 0 C53 34.98 53 69.96 53 106 C88.31 106 123.62 106 160 106 C160 123.82 160 141.64 160 160 C124.69 160 89.38 160 53 160 C53 230.29 53 300.58 53 373 C35.51 373 18.02 373 0 373 C0 249.91 0 126.82 0 0 Z " fill="#FEF3F6" transform="translate(127,69)"/>
<path d="M0 0 C1.96775377 -0.00668677 1.96775377 -0.00668677 3.97526014 -0.01350862 C5.42435671 -0.01341933 6.87345327 -0.0132295 8.32254982 -0.01294994 C9.86725094 -0.01625119 11.41195121 -0.01997731 12.95665038 -0.02409142 C17.19919753 -0.03409005 21.44173053 -0.03782478 25.68428779 -0.04048073 C30.26122432 -0.04439019 34.83814971 -0.05396814 39.41507912 -0.0626936 C50.46799696 -0.08244088 61.52091569 -0.09252245 72.57384676 -0.10142139 C77.78288389 -0.10580752 82.99192001 -0.11117352 88.20095634 -0.11641026 C105.52430383 -0.13342152 122.84765069 -0.14791445 140.17100525 -0.155159 C144.66484897 -0.1570688 149.15869269 -0.15898914 153.65253639 -0.16094494 C155.32785816 -0.16167055 155.32785816 -0.16167055 157.03702481 -0.16241082 C175.11920706 -0.17070649 193.20132306 -0.19603606 211.2834764 -0.22852562 C229.8611488 -0.26163247 248.43878758 -0.27961107 267.01648962 -0.28280324 C277.44180767 -0.28496507 287.86702912 -0.29366583 298.29231834 -0.31926441 C307.17330214 -0.34102105 316.05416589 -0.3489975 324.93517332 -0.33929763 C329.46173668 -0.33476717 333.9880526 -0.33656568 338.51458168 -0.35605907 C342.66890249 -0.37379402 346.82279723 -0.37261029 350.97712322 -0.35716178 C352.46982148 -0.35480125 353.96255007 -0.35902729 355.45520227 -0.37099043 C378.51895071 -0.54419829 399.14225594 7.18131443 415.87177467 23.13422108 C432.12124782 40.49004133 438.0957951 61.13045574 437.94220924 84.33856678 C437.94683304 85.89205379 437.95319576 87.4455364 437.96111822 88.99901009 C437.97763206 93.21489484 437.96964823 97.43041187 437.95717335 101.64629698 C437.94805064 106.21353369 437.96212805 110.7807111 437.97309303 115.34793568 C437.99080642 124.27422113 437.98707045 133.20037144 437.97544247 142.12666202 C437.96638001 149.38632385 437.96519627 156.64594802 437.96953773 163.9056139 C437.97015067 164.94193811 437.9707636 165.97826232 437.97139511 167.04599029 C437.97267411 169.15177879 437.97397096 171.25756728 437.97528547 173.36335576 C437.98667024 193.073009 437.97361065 212.78258762 437.952084 232.49222863 C437.93421495 249.37520877 437.93731965 266.25807886 437.95575905 283.14105701 C437.977203 302.78396348 437.9855718 322.42680468 437.97330999 342.06972122 C437.9720359 344.16742356 437.97077842 346.2651259 437.96953773 348.36282825 C437.96892063 349.39472682 437.96830353 350.42662538 437.96766773 351.4897936 C437.96422539 358.7341293 437.970019 365.97842333 437.97945595 373.22275257 C437.99071656 382.06064224 437.98755091 390.89838994 437.96633297 399.73626351 C437.95587697 404.23870953 437.95160677 408.74091953 437.96492958 413.24336338 C437.97697349 417.37634978 437.97009673 421.50888456 437.94901937 425.6418308 C437.9446035 427.1254601 437.94670438 428.60912869 437.95652252 430.09273207 C438.03843932 443.51578878 436.24433659 457.53466545 429.74677467 469.50922108 C429.40501198 470.1622118 429.06324928 470.81520252 428.71113014 471.48798084 C418.85029288 489.66149944 402.380727 502.42964385 383.01630592 509.12640858 C373.28702826 511.8637626 364.16690167 512.42489709 354.07171059 512.40164661 C352.52426863 512.40538818 350.97682855 512.40999172 349.42939144 512.41537726 C345.19779173 512.42756034 340.96627135 512.42735235 336.73465812 512.42498851 C332.16253826 512.42457914 327.59044343 512.43563098 323.01833534 512.44510365 C314.0677346 512.46168954 305.11716021 512.46721213 296.16654538 512.4683284 C288.88670064 512.46928015 281.60686456 512.47339677 274.32702255 512.47972965 C253.66530523 512.49733654 233.00360865 512.50656955 212.34188377 512.5050687 C211.22889376 512.50498879 210.11590376 512.50490888 208.96918678 512.50482655 C207.85482992 512.50474478 206.74047306 512.50466302 205.59234781 512.50457878 C187.54342388 512.50376634 169.49458349 512.5228949 151.44568371 512.55110328 C132.89160549 512.57987119 114.33756795 512.59364138 95.78346688 512.59191573 C85.37550869 512.59125311 74.96763805 512.59668888 64.55970001 512.61827183 C55.69603605 512.63653523 46.83249931 512.64078884 37.96882462 512.62725298 C33.45224069 512.62074891 28.93590047 512.62051272 24.41934013 512.63795948 C20.27313727 512.65380986 16.12736894 512.65070623 11.98117591 512.63339122 C10.4926203 512.63034737 9.00403128 512.63385325 7.51551514 512.64511137 C-5.924957 512.73991682 -19.9494226 510.95337021 -31.94072533 504.44672108 C-32.59371605 504.10495838 -33.24670677 503.76319569 -33.91948509 503.41107655 C-52.09300369 493.55023929 -64.8611481 477.08067341 -71.55791283 457.71625233 C-74.29589008 447.98475953 -74.85639552 438.86242269 -74.83315086 428.76492786 C-74.83689242 427.21677321 -74.84149595 425.66862045 -74.84688151 424.12047064 C-74.85906458 419.88694032 -74.8588566 415.65348931 -74.85649276 411.41994548 C-74.8560834 406.84579974 -74.86713515 402.27167903 -74.87660789 397.69754505 C-74.89319346 388.74326931 -74.89871635 379.7890199 -74.89983265 370.83473007 C-74.90078435 363.55249306 -74.90490075 356.27026471 -74.9112339 348.98803043 C-74.9288402 328.32124745 -74.93807381 307.6544852 -74.93657295 286.98769467 C-74.93649304 285.87444194 -74.93641313 284.76118921 -74.9363308 283.61420155 C-74.93624903 282.49958237 -74.93616727 281.3849632 -74.93608303 280.23656769 C-74.93527047 262.18050169 -74.95440234 244.12451918 -74.98260753 226.06847732 C-75.01136968 207.50875386 -75.02514597 188.94907108 -75.02341998 170.38932478 C-75.02275719 159.9774861 -75.02820045 149.56573492 -75.04977608 139.15391636 C-75.06803181 130.28766197 -75.07229928 121.42153474 -75.05875723 112.55526964 C-75.05224951 108.03678439 -75.05203044 103.51854279 -75.06946373 99.00008106 C-75.0852975 94.85331361 -75.082227 90.70698093 -75.06489547 86.56022342 C-75.06184804 85.07033973 -75.06537144 83.58042274 -75.07661562 82.09057836 C-75.23890676 59.03656568 -67.51173479 38.41900687 -51.56572533 21.69672108 C-37.76506691 8.75170348 -19.06527904 0.03014336 0 0 Z M-29.69072533 13.69672108 C-30.35322289 14.03187733 -31.01572044 14.36703358 -31.69829369 14.71234608 C-38.69936293 18.44849766 -44.09231218 23.45902311 -49.56572533 29.13422108 C-50.22959251 29.76715076 -50.8934597 30.40008045 -51.57744408 31.05218983 C-66.17361643 45.91076528 -68.71957599 66.48804775 -68.70616722 86.20689869 C-68.70875442 87.73499018 -68.71176856 89.263081 -68.71517062 90.7911709 C-68.72320201 94.97379546 -68.72502803 99.15640283 -68.72576809 103.3390342 C-68.72762536 107.85657305 -68.73517597 112.37410312 -68.74190331 116.89163685 C-68.75545885 126.76156263 -68.76150678 136.63148434 -68.76591396 146.50141788 C-68.76868063 152.66844662 -68.77291871 158.8354738 -68.77741814 165.00250149 C-68.7896063 182.09007099 -68.79990707 199.17763926 -68.80329323 216.26521301 C-68.80351279 217.35785883 -68.80373236 218.45050465 -68.80395858 219.57626094 C-68.80417686 220.67145732 -68.80439514 221.76665369 -68.80462003 222.89503783 C-68.80506349 225.11416988 -68.80551005 227.33330192 -68.8059597 229.55243397 C-68.80618113 230.65319019 -68.80640256 231.75394641 -68.8066307 232.88805888 C-68.81057837 250.72242743 -68.82803349 268.55675511 -68.85131922 286.39110788 C-68.87505423 304.71800315 -68.88749603 323.04487792 -68.88866115 341.3717888 C-68.8895766 351.65501529 -68.89529649 361.93818849 -68.91348076 372.22140026 C-68.92891064 380.97755746 -68.93398512 389.7336449 -68.92574266 398.48981311 C-68.92184662 402.95332496 -68.92271448 407.41669644 -68.9368 411.88019085 C-68.94960152 415.97439831 -68.94828707 420.06836082 -68.93620929 424.16256825 C-68.93426308 425.63562304 -68.93728037 427.10869555 -68.94605365 428.5817255 C-69.07285735 451.3308768 -62.5130485 469.6732951 -46.87822533 486.32172108 C-31.42045367 501.2800878 -12.83760788 506.61091677 8.12000465 506.52863026 C9.67813722 506.53352815 11.23626615 506.53972209 12.79438901 506.54708815 C17.04623727 506.56339696 21.29789901 506.56118834 25.54976749 506.55571318 C30.14706538 506.55303173 34.74431479 506.56759563 39.34159279 506.57980824 C48.33704724 506.60081766 57.33243717 506.60540566 66.32791325 506.60362035 C73.64347805 506.60231043 80.95902279 506.60612858 88.27458382 506.61354542 C90.38541198 506.61564472 92.49624014 506.61774232 94.6070683 506.61983824 C95.65783706 506.62088177 96.70860581 506.62192529 97.79121605 506.62300044 C117.64482021 506.6418848 137.49838739 506.64085819 157.35199681 506.63403112 C175.49202273 506.62845729 193.63190736 506.64927749 211.77190027 506.68239158 C230.42209424 506.71617136 249.07222061 506.73129156 267.72244573 506.72667456 C278.18345544 506.72443417 288.64433458 506.72960995 299.10531807 506.75456715 C308.01180731 506.77563571 316.91809438 506.7791173 325.82459208 506.76026756 C330.36339028 506.75114382 334.90181206 506.74986282 339.44058037 506.77062321 C343.60585939 506.78946354 347.77045716 506.78468553 351.93571129 506.76207739 C353.43226373 506.75792429 354.92886976 506.76197917 356.4253653 506.77567333 C375.45891274 506.93780726 394.51327352 500.6209938 408.37958717 487.24188709 C409.74266053 485.88412381 411.08901871 484.50963973 412.43427467 483.13422108 C413.10071999 482.50000233 413.7671653 481.86578358 414.45380592 481.21234608 C418.43207681 477.15325254 421.03742442 472.52192819 423.62177467 467.50922108 C423.9430735 466.8947411 424.26437233 466.28026112 424.59540749 465.64716053 C430.403298 453.79564041 432.02724149 442.21622012 431.94220924 429.19452381 C431.94682909 427.63323831 431.95318923 426.07195717 431.96111822 424.51068497 C431.97768603 420.25942881 431.96962296 416.00853571 431.95717335 411.75727892 C431.94807329 407.15732659 431.96211701 402.557434 431.97309303 397.95749378 C431.99083022 388.96161913 431.98705973 379.96587838 431.97544247 370.9699986 C431.96638947 363.65541474 431.96519221 356.34086826 431.96953773 349.0262804 C431.97045713 347.46155905 431.97045713 347.46155905 431.97139511 345.86522716 C431.97267407 343.74574287 431.97397093 341.62625858 431.97528547 339.50677431 C431.98667721 319.6570189 431.97359965 299.80733753 431.952084 279.95759428 C431.93421432 262.94514376 431.93731882 245.93280244 431.95575905 228.92035389 C431.97719062 209.13906178 431.9855787 189.35783446 431.97330999 169.57653236 C431.97203587 167.4650755 431.97077838 165.35361863 431.96953773 163.24216175 C431.96892063 162.20342787 431.96830353 161.16469398 431.96766773 160.09448332 C431.96422169 152.79316867 431.97002706 145.4918953 431.97945595 138.19058704 C431.99070274 129.2862972 431.98757966 120.38214832 431.96633297 111.47787452 C431.95585857 106.93936679 431.95163877 102.40109364 431.96492958 97.86258793 C431.9769346 93.70003263 431.9701589 89.53792716 431.94901937 85.37541211 C431.94458738 83.87761472 431.94674201 82.37977854 431.95652252 80.88200653 C432.03348629 68.10601354 429.72212024 56.47386188 423.87177467 45.00922108 C423.53661842 44.34672352 423.20146217 43.68422596 422.85614967 43.00165272 C419.11999809 36.00058347 414.10947264 30.60763422 408.43427467 25.13422108 C407.48488014 24.1384203 407.48488014 24.1384203 406.51630592 23.12250233 C394.88568587 11.69727954 376.68976061 6.02524505 360.75553226 6 C359.44395537 5.99554216 358.13237847 5.99108431 356.78105682 5.98649138 C355.33745475 5.98658066 353.89385268 5.98677048 352.45025063 5.98705006 C350.90738586 5.98374789 349.36452196 5.98002159 347.82165915 5.97590858 C343.58891169 5.96592077 339.3561784 5.962177 335.12342083 5.95951927 C330.55540184 5.95560671 325.98739396 5.94602916 321.4193821 5.9373064 C310.39210602 5.91757039 299.36482907 5.90748011 288.33753976 5.89857861 C283.14069948 5.89419163 277.94386021 5.88882594 272.74702072 5.88358974 C255.46566257 5.86658148 238.18430503 5.85208758 220.9029398 5.844841 C216.42127863 5.84293121 211.93961746 5.84101086 207.45795631 5.83905506 C206.34410663 5.83857132 205.23025695 5.83808758 204.08265425 5.83758918 C186.04121682 5.82928979 167.99984572 5.80395259 149.95843726 5.77147438 C131.42368332 5.73838078 112.88896307 5.72039022 94.35417944 5.71719676 C83.95241433 5.71503397 73.55074598 5.70631884 63.1490097 5.68073559 C54.29031755 5.65899729 45.43174567 5.65099363 36.57302987 5.66070237 C32.05683351 5.66523778 27.54088517 5.66340508 23.02472305 5.64394093 C18.88226553 5.62624226 14.74023575 5.6273608 10.59777326 5.64283822 C9.10715929 5.64520415 7.61651518 5.64094397 6.12594711 5.62900957 C-6.63157735 5.53327387 -18.24388572 7.85545936 -29.69072533 13.69672108 Z " fill="#010203" transform="translate(74.56572532653809,-0.13422107696533203)"/>
<path d="M0 0 C17.82 0 35.64 0 54 0 C54 52.8 54 105.6 54 160 C36.18 160 18.36 160 0 160 C0 107.2 0 54.4 0 0 Z " fill="#FDF3F6" transform="translate(340,282)"/>
<path d="M0 0 C17.82 0 35.64 0 54 0 C54 17.49 54 34.98 54 53 C36.18 53 18.36 53 0 53 C0 35.51 0 18.02 0 0 Z " fill="#FDF3F6" transform="translate(340,69)"/>
<path d="M0 0 C17.49 0 34.98 0 53 0 C53 17.49 53 34.98 53 53 C35.51 53 18.02 53 0 53 C0 35.51 0 18.02 0 0 Z " fill="#FFF4F6" transform="translate(287,229)"/>
<path d="M0 0 C17.49 0 34.98 0 53 0 C53 17.49 53 34.98 53 53 C35.51 53 18.02 53 0 53 C0 35.51 0 18.02 0 0 Z " fill="#FFF4F6" transform="translate(287,122)"/>
</svg>
